<svg xmlns="http://www.w3.org/2000/svg" fill="none" viewBox="0 0 110 110"><rect fill="#2F9B75" rx="6" height="42" width="42" y="35" x="35"/><path fill="#000" d="M38.312 35.634A6 6 0 0035 41v30a6 6 0 006 6h30c1.83 0 3.47-.82 4.57-2.112L38.312 35.634z" clip-rule="evenodd" fill-rule="evenodd" opacity=".2"/><rect fill="#5AC09C" rx="6" height="36" width="36" y="33" x="37"/><path fill="#2F9B75" d="M63.5 42L72 63.5V36l-32.5-.5 24 6.5z" opacity=".6"/><mask height="36" width="36" y="33" x="37" maskUnits="userSpaceOnUse" id="a"><rect fill="#C4C4C4" rx="6" height="36" width="36" y="33" x="37"/></mask><g mask="url(#a)" fill="#fff"><path d="M35.617 39.426A5.855 5.855 0 0135 36.792c0-1.12.42-2.031 1.262-2.736.842-.704 1.904-1.056 3.185-1.056 1.033 0 1.884.207 2.553.622.67.415 1.249 1.057 1.736 1.925.976-1.698 2.439-2.547 4.39-2.547 1.55 0 2.802.574 3.759 1.722.965 1.139 1.448 2.668 1.448 4.588a8.705 8.705 0 01-.502 2.982 8.07 8.07 0 01-1.506 2.533c.469.974.703 1.973.703 2.996 0 1.06-.172 2.016-.517 2.865l-2.151-.448c.277-.685.416-1.535.416-2.548 0-.501-.067-.979-.201-1.432a10.285 10.285 0 01-3.041 1.447c-1.1.318-2.29.477-3.572.477-1.99 0-3.5-.361-4.534-1.085-1.032-.733-1.549-1.8-1.549-3.199 0-1.273.507-2.267 1.52-2.981 1.015-.724 2.454-1.086 4.319-1.086 1.501 0 2.86.251 4.074.753a8.906 8.906 0 013.199 2.258c.306-.473.535-.99.688-1.549.154-.56.23-1.167.23-1.824 0-1.36-.253-2.388-.76-3.082-.507-.705-1.248-1.057-2.224-1.057-.765 0-1.42.266-1.965.796-.536.53-.894 1.284-1.076 2.258h-2.281c-.363-2.123-1.382-3.184-3.056-3.184-.688 0-1.219.164-1.592.492-.363.318-.545.762-.545 1.332 0 .607.148 1.191.445 1.75l-2.238.652zm12.954 4.95c-.66-.762-1.497-1.336-2.51-1.722-1.005-.396-2.12-.594-3.343-.594-1.12 0-1.97.17-2.554.507-.574.328-.86.772-.86 1.331 0 .695.32 1.211.96 1.549.651.338 1.631.506 2.941.506 1.1 0 2.095-.13 2.984-.39a7.095 7.095 0 002.382-1.187zM57.333 50.686V33h18.55v2.299h-6.215v15.387h-2.685V35.3h-6.964v15.387h-2.686zm6.183-6.832a1.99 1.99 0 01-1.436-.574c-.375-.383-.562-.873-.562-1.469 0-.574.187-1.053.562-1.436.375-.383.853-.575 1.436-.575.562 0 1.03.192 1.406.575.374.383.562.862.562 1.436 0 .596-.188 1.086-.562 1.469-.375.383-.844.574-1.406.574zm9.618 0a1.99 1.99 0 01-1.436-.574c-.375-.383-.562-.873-.562-1.469 0-.574.187-1.053.562-1.436.375-.383.853-.575 1.436-.575.562 0 1.03.192 1.406.575.374.383.562.862.562 1.436 0 .596-.188 1.086-.562 1.469-.375.383-.844.574-1.406.574zM42.605 67.243c-1.7 0-3.16-.579-4.385-1.736-1.206-1.175-1.945-2.819-2.22-4.931 1.462-.22 2.567-.624 3.316-1.212.768-.588 1.151-1.277 1.151-2.066 0-.955-.283-1.773-.85-2.452H34V53h18.333v1.846h-3.151v15.84h-2.138v-5.344c-.931 1.267-2.411 1.9-4.44 1.9zm.192-1.846c1.279 0 2.302-.349 3.069-1.047.786-.716 1.178-1.671 1.178-2.865v-6.64H41.92c.456.699.685 1.553.685 2.563 0 2.167-1.352 3.673-4.056 4.518a4.472 4.472 0 001.48 2.507c.767.642 1.69.964 2.768.964zM64.554 62.167a12.09 12.09 0 00-.832-.028c-1.147 0-2.068.278-2.763.832-.687.555-1.03 1.33-1.03 2.328 0 2.181 1.424 3.272 4.273 3.272 1.72 0 3.239-.414 4.555-1.242 1.325-.827 2.355-1.955 3.088-3.384.733-1.439 1.1-2.873 1.1-4.302 0-1.486-.226-2.614-.677-3.385-.451-.78-1.11-1.17-1.974-1.17-.64 0-1.147.197-1.523.592a1.97 1.97 0 00-.55 1.41c0 1.006.338 1.782 1.015 2.327.686.546 1.702.95 3.046 1.213l-.72 2.073c-3.75-.996-5.626-2.825-5.626-5.486 0-1.241.376-2.252 1.128-3.032.762-.79 1.791-1.185 3.089-1.185 1.56 0 2.81.574 3.75 1.72.94 1.148 1.41 2.788 1.41 4.923 0 1.824-.455 3.61-1.367 5.36a10.353 10.353 0 01-3.878 4.146c-1.683 1.025-3.62 1.537-5.81 1.537-2.105 0-3.741-.484-4.907-1.452-1.166-.969-1.748-2.271-1.748-3.907 0-1.458.488-2.67 1.466-3.639-.93-.62-1.622-1.307-2.073-2.06-.442-.751-.663-1.602-.663-2.552 0-1.175.433-2.148 1.298-2.92.874-.77 2.044-1.156 3.51-1.156.95 0 1.848.103 2.694.31l-.395 2.074c-.79-.18-1.47-.268-2.044-.268-.865 0-1.537.192-2.017.578-.48.376-.719.893-.719 1.551 0 .724.198 1.34.592 1.848.405.508 1.006.964 1.805 1.368.79-.291 1.669-.437 2.637-.437.235 0 .611.018 1.128.056l-.268 2.087z"/></g></svg>